# xmcd
# 
# Track frame offsets:
#     150
#     11568
#     28603
#     43913
#     61410
#     73870
#     84128
#     96800
#     128665
#     138500
#     149835
#     158750
# 
# Disc length: 2230
# 
# Revision: 12
# Processed by: cddbd v1.5.2PL0 Copyright (c) Steve Scherf et al.
# Submitted via: fre:ac v1.0.17
# 
DISCID=a608b40c
DTITLE=Various Artist - Midnight Cowboy  (OST)
DYEAR=1969
DGENRE=Soundtrack
TTITLE0=Harry Nilsson - Everybody's Talkin'
TTITLE1=John Barry - Joe Buck Rides Again
TTITLE2=The Groop - A Famous Myth
TTITLE3=John Barry - Fun City
TTITLE4=Lesley Miller - He Quit Me
TTITLE5=Elephant's Memory - Jungle Gym At The Zoo
TTITLE6=John Barry - Midnight Cowboy
TTITLE7=Elephant's Memory - Old Man Willow
TTITLE8=John Barry - Florida Fantasy
TTITLE9=The Groop - Tears And Joys
TTITLE10=John Barry - Science Fiction
TTITLE11=Harry Nilsson - Everybody's Talkin'  (Reprise)
EXTD=YEAR: 1969
EXTT0=(F.Neil) - 2:30\nSung by Harry Nilsson
EXTT1=(J.Barry) - 3:46
EXTT2=(J.M. Comanor) - 3:22
EXTT3=(J.Barry) - 3:52
EXTT4=(W.W. Zevon) - 2:46
EXTT5=(R.Sussman - R.Frank - S. Bronstein) - 2:15
EXTT6=(J.Barry) - 2:34
EXTT7=(R.Sussman - M.Shapiro - M.Yules - S. Bronstein) - 7:03
EXTT8=(J.Barry) - 2:08
EXTT9=(J.M. Comanor) - 2:29
EXTT10=(J.Barry) - 1:57
EXTT11=(F.Neil) - 1:54\nSung by Harry Nilsson
PLAYORDER=
